<svg width="20" height="24" viewBox="0 0 20 24" fill="none" xmlns="http://www.w3.org/2000/svg">
<path fill-rule="evenodd" clip-rule="evenodd" d="M11.2404 17.1114C10.9278 17.1114 10.6439 17.1114 10.3391 17.1114C10.3391 17.1886 10.3391 17.2585 10.3391 17.3278C10.3378 18.7542 10.3424 20.182 10.3313 21.6098C10.3274 22.0868 10.2024 22.5427 9.99641 22.9702C9.71778 23.5554 9.22594 23.8517 8.61179 23.9652C8.5091 23.983 8.40184 24.0054 8.2985 23.9988C8.20301 23.9922 8.10883 23.95 7.99764 23.919C8.10229 23.7422 8.18208 23.5997 8.26842 23.4604C8.54442 23.0197 8.67196 22.5262 8.67916 22.0162C8.70074 20.4842 8.69551 18.9508 8.7027 17.4169C8.7027 17.3885 8.6942 17.3588 8.69028 17.3304C8.27561 17.3951 7.97213 17.7738 7.9499 18.2541C7.94074 18.4554 7.94728 18.6546 7.94728 18.8558C7.94728 19.7413 7.91327 20.628 7.95578 21.5101C8.01726 22.7611 7.13168 23.2513 6.27815 23.3608C6.0767 23.3865 5.87068 23.3747 5.66596 23.3674C5.59467 23.3648 5.51619 23.339 5.45209 23.3028C5.28989 23.211 5.27288 23.0349 5.40892 22.9069C5.46909 22.8501 5.53319 22.796 5.60252 22.7558C6.32328 22.3395 6.57378 21.7015 6.50641 20.8926C6.45278 20.2612 6.42531 19.6271 6.38541 18.9918C6.21536 19.0307 6.02046 19.0848 5.82228 19.1178C4.95828 19.2649 4.16035 19.0624 3.38007 18.6902C2.79339 18.4105 2.41862 17.9374 2.08964 17.4096C1.85549 17.0375 1.66581 16.6258 1.38719 16.2926C1.00457 15.8367 0.558513 15.4329 0.130767 15.0153C-0.0432098 14.8424 -0.0504051 14.7546 0.150387 14.6095C0.50161 14.3542 0.868531 14.4538 1.21583 14.6042C1.65666 14.7975 1.97125 15.1505 2.2695 15.518C2.66454 16.001 3.06613 16.474 3.59067 16.827C4.50372 17.4433 5.60383 17.4406 6.4966 16.8C6.54762 16.7624 6.58817 16.6944 6.61171 16.6337C6.83409 16.028 7.23437 15.5899 7.82497 15.3346C8.04342 15.2402 8.26318 15.1466 8.5333 15.0304C8.17685 14.9856 7.86945 14.9493 7.56531 14.9064C6.24807 14.7197 4.98052 14.3872 3.82547 13.6858C2.55989 12.9165 1.81101 11.7823 1.48791 10.3493C1.15827 8.87997 1.15566 7.41394 1.60303 5.96639C1.82148 5.2591 2.21979 4.64815 2.69725 4.08997C2.77442 4.0009 2.79797 3.92767 2.76527 3.80891C2.43693 2.63252 2.56774 1.47527 2.91439 0.32725C2.93793 0.248736 2.9654 0.170223 2.99157 0.0917093C2.9968 0.0765344 3.00726 0.0620193 3.03735 0C3.46967 0.0771942 3.91966 0.136574 4.35983 0.243458C5.27484 0.463825 6.10156 0.882783 6.85306 1.45085C6.94855 1.52145 7.03031 1.53729 7.14149 1.50892C8.26253 1.21927 9.40515 1.0827 10.5595 1.0761C11.6904 1.07082 12.8095 1.19354 13.9161 1.437C14.0535 1.46801 14.1542 1.4436 14.2732 1.36838C15.0424 0.887402 15.8109 0.393888 16.7154 0.211129C17.1203 0.127337 17.5349 0.0923686 17.9444 0.0329885C18.0477 0.0191331 18.1 0.0481629 18.1314 0.157686C18.4715 1.29581 18.6076 2.44778 18.3878 3.62945C18.3747 3.69674 18.3996 3.79439 18.4454 3.84454C19.3506 4.85334 19.8012 6.05612 19.9477 7.39085C20.0602 8.41417 19.9876 9.42693 19.7639 10.4291C19.433 11.9176 18.5991 13.0346 17.323 13.8455C16.3877 14.438 15.3668 14.7527 14.285 14.9038C13.9338 14.9513 13.5793 14.9862 13.1999 15.0298C13.2483 15.0621 13.2823 15.0878 13.3183 15.1096C13.4982 15.2178 13.6806 15.326 13.8605 15.4342C14.6061 15.8776 14.9881 16.5552 15.1025 17.4017C15.1248 17.5706 15.1366 17.7421 15.1392 17.9117C15.1627 19.2148 15.1823 20.5172 15.2085 21.8189C15.2098 21.8908 15.236 21.9707 15.2752 22.0314C15.4884 22.3718 15.7762 22.6331 16.1183 22.8383C16.234 22.9069 16.3452 22.9748 16.3106 23.1371C16.2779 23.2902 16.1595 23.3443 16.0267 23.3588C15.2098 23.4479 14.4943 23.2341 13.9462 22.5922C13.7402 22.35 13.7016 22.038 13.7016 21.7252C13.7003 20.6531 13.7016 19.5783 13.7003 18.5048C13.7003 18.3874 13.6963 18.2693 13.68 18.1532C13.6139 17.723 13.336 17.4287 12.8781 17.3192C12.8781 17.3878 12.8781 17.4492 12.8781 17.5112C12.8781 18.9264 12.8742 20.3423 12.8794 21.7589C12.8808 22.0228 12.9056 22.2874 12.9357 22.5513C12.9658 22.8178 13.0665 23.058 13.2182 23.283C13.3464 23.4723 13.4315 23.6927 13.5505 23.9295C13.4328 23.9526 13.3647 23.985 13.302 23.9744C12.8435 23.9058 12.3941 23.7963 12.0194 23.4987C11.5936 23.1609 11.4301 22.674 11.3215 22.1686C11.2653 21.906 11.2456 21.6315 11.2443 21.3617C11.2365 20.0164 11.2404 18.6724 11.2404 17.3271C11.2404 17.2625 11.2404 17.1925 11.2404 17.1114Z" fill="white"/>
</svg>
