<svg width="32" height="32" viewBox="0 0 32 32" fill="none" xmlns="http://www.w3.org/2000/svg">
<path fill-rule="evenodd" clip-rule="evenodd" d="M16 0C7.16328 0 0 7.16356 0 15.9997C0 24.8364 7.16328 32 16 32C24.8362 32 32 24.8365 32 15.9997C32 7.16356 24.8362 0 16 0ZM11.3065 23.0586H7.62217V11.9431H11.3065V23.0586ZM9.46438 10.4253H9.44084C8.20396 10.4253 7.40419 9.57117 7.40419 8.50425C7.40419 7.41494 8.22804 6.58496 9.48907 6.58496C10.7495 6.58496 11.5256 7.41494 11.5498 8.50425C11.5498 9.57117 10.7495 10.4253 9.46438 10.4253ZM24.5957 23.0586H20.9109V17.1115C20.9109 15.6179 20.3779 14.5981 19.0434 14.5981C18.0263 14.5981 17.4199 15.2854 17.1531 15.9491C17.0562 16.1873 17.032 16.5186 17.032 16.851V23.0587H13.3465C13.3465 23.0587 13.3953 12.986 13.3465 11.9432H17.032V13.5168C17.5208 12.7606 18.3969 11.6821 20.3526 11.6821C22.7782 11.6821 24.5957 13.2707 24.5957 16.6849V23.0586H24.5957Z" fill="black"/>
</svg>
