<svg width="18" height="17" viewBox="0 0 18 17" fill="none" xmlns="http://www.w3.org/2000/svg">
<path d="M3.70365 17H0.060791V4.85714H3.70365V17ZM17.0608 17H13.4179V10.5133C13.4179 8.823 12.8156 7.9815 11.622 7.9815C10.6761 7.9815 10.0762 8.45264 9.77508 9.39614C9.77508 10.9286 9.77508 17 9.77508 17H6.13222C6.13222 17 6.18079 6.07143 6.13222 4.85714H9.00765L9.22986 7.28571H9.30515C10.0519 6.07143 11.2456 5.24814 12.8824 5.24814C14.1271 5.24814 15.1337 5.59421 15.9024 6.46364C16.6759 7.33428 17.0608 8.50243 17.0608 10.1429V17Z" fill="white"/>
<path d="M1.88214 3.64286C2.92162 3.64286 3.76429 2.82738 3.76429 1.82143C3.76429 0.815481 2.92162 0 1.88214 0C0.842664 0 0 0.815481 0 1.82143C0 2.82738 0.842664 3.64286 1.88214 3.64286Z" fill="white"/>
</svg>
