<svg width="32" height="32" viewBox="0 0 32 32" fill="none" xmlns="http://www.w3.org/2000/svg">
<circle cx="16" cy="16" r="16" fill="black"/>
<rect x="6" y="9" width="20" height="14" rx="4" fill="white"/>
<path d="M24.239 10.9734C24.2022 10.9241 24.156 10.8824 24.1031 10.8509C24.0502 10.8194 23.9916 10.7987 23.9307 10.7898C23.8697 10.7809 23.8076 10.7842 23.7479 10.7993C23.6882 10.8145 23.6321 10.8413 23.5828 10.8781L16.0218 16.5219C15.9948 16.5422 15.9619 16.5531 15.9281 16.5531C15.8943 16.5531 15.8614 16.5422 15.8343 16.5219L8.42184 10.8531C8.3729 10.8158 8.31709 10.7884 8.25759 10.7727C8.19808 10.7569 8.13605 10.753 8.07504 10.7612C8.01403 10.7694 7.95523 10.7895 7.902 10.8204C7.84877 10.8514 7.80216 10.8925 7.76481 10.9414C7.72747 10.9903 7.70013 11.0462 7.68435 11.1057C7.66858 11.1652 7.66468 11.2272 7.67288 11.2882C7.68107 11.3492 7.70121 11.408 7.73213 11.4612C7.76305 11.5145 7.80415 11.5611 7.85309 11.5984L13.6812 16.0562L7.91715 20.4C7.8675 20.437 7.82562 20.4835 7.79392 20.5367C7.76222 20.5899 7.74131 20.6489 7.73239 20.7102C7.72346 20.7715 7.7267 20.8339 7.74192 20.894C7.75713 20.954 7.78402 21.0105 7.82106 21.0602C7.8581 21.1098 7.90455 21.1517 7.95777 21.1834C8.01099 21.2151 8.06994 21.236 8.13124 21.2449C8.19254 21.2538 8.255 21.2506 8.31505 21.2354C8.3751 21.2202 8.43156 21.1933 8.48122 21.1562L14.4547 16.6469L15.264 17.2719C15.4528 17.4163 15.6834 17.4954 15.9211 17.4971C16.1587 17.4988 16.3905 17.423 16.5812 17.2812L17.4312 16.6469L23.475 21.1562C23.5243 21.1931 23.5804 21.2198 23.6401 21.235C23.6998 21.2501 23.7619 21.2534 23.8228 21.2445C23.8838 21.2357 23.9424 21.2149 23.9953 21.1834C24.0482 21.1519 24.0944 21.1103 24.1312 21.0609C24.168 21.0116 24.1948 20.9555 24.2099 20.8958C24.2251 20.8361 24.2283 20.774 24.2195 20.7131C24.2106 20.6521 24.1899 20.5935 24.1584 20.5406C24.1269 20.4877 24.0853 20.4415 24.0359 20.4047L18.214 16.0547L24.1437 11.625C24.2421 11.5507 24.3072 11.4407 24.3251 11.3188C24.3429 11.1968 24.312 11.0728 24.239 10.9734V10.9734Z" fill="black"/>
<path d="M23.6562 8.96875H8.34375C7.72215 8.96875 7.12601 9.21568 6.68647 9.65522C6.24693 10.0948 6 10.6909 6 11.3125L6 20.6875C6 21.3091 6.24693 21.9052 6.68647 22.3448C7.12601 22.7843 7.72215 23.0312 8.34375 23.0312H23.6562C24.2779 23.0312 24.874 22.7843 25.3135 22.3448C25.7531 21.9052 26 21.3091 26 20.6875V11.3125C26 10.6909 25.7531 10.0948 25.3135 9.65522C24.874 9.21568 24.2779 8.96875 23.6562 8.96875ZM25.0625 20.6875C25.0625 21.0605 24.9143 21.4181 24.6506 21.6819C24.3869 21.9456 24.0292 22.0938 23.6562 22.0938H8.34375C7.97079 22.0938 7.6131 21.9456 7.34938 21.6819C7.08566 21.4181 6.9375 21.0605 6.9375 20.6875V11.3125C6.9375 10.9395 7.08566 10.5819 7.34938 10.3181C7.6131 10.0544 7.97079 9.90625 8.34375 9.90625H23.6562C24.0292 9.90625 24.3869 10.0544 24.6506 10.3181C24.9143 10.5819 25.0625 10.9395 25.0625 11.3125V20.6875Z" fill="black"/>
</svg>
